<svg version="1.1" viewBox="0.0 0.0 192.0 192.0" fill="none" stroke="none" stroke-linecap="square" stroke-miterlimit="10" xmlns:xlink="http://www.w3.org/1999/xlink" xmlns="http://www.w3.org/2000/svg"><clipPath id="p.0"><path d="m0 0l192.0 0l0 192.0l-192.0 0l0 -192.0z" clip-rule="nonzero"/></clipPath><g clip-path="url(#p.0)"><path fill="#000000" fill-opacity="0.0" d="m0 0l192.0 0l0 192.0l-192.0 0z" fill-rule="evenodd"/><path fill="#c0ffff" d="m0.94750655 96.002625l0 0c0 -53.019337 42.769146 -96.0 95.52756 -96.0l0 0c25.33548 0 49.633286 10.114257 67.54819 28.117748c17.914886 18.003494 27.97937 42.421467 27.97937 67.88225l0 0c0 53.019333 -42.76915 96.0 -95.52756 96.0l0 0c-52.758415 0 -95.52756 -42.980667 -95.52756 -96.0zm16.176638 0l0 0c0 44.08522 35.52662 79.823364 79.35092 79.823364c43.82431 0 79.35092 -35.738144 79.35092 -79.823364l0 0c0 -44.085224 -35.52661 -79.823364 -79.35092 -79.823364l0 0c-43.824306 0 -79.35092 35.738136 -79.35092 79.823364z" fill-rule="evenodd"/><path stroke="#ffffff" stroke-width="1.0" stroke-linejoin="round" stroke-linecap="butt" d="m0.94750655 96.002625l0 0c0 -53.019337 42.769146 -96.0 95.52756 -96.0l0 0c25.33548 0 49.633286 10.114257 67.54819 28.117748c17.914886 18.003494 27.97937 42.421467 27.97937 67.88225l0 0c0 53.019333 -42.76915 96.0 -95.52756 96.0l0 0c-52.758415 0 -95.52756 -42.980667 -95.52756 -96.0zm16.176638 0l0 0c0 44.08522 35.52662 79.823364 79.35092 79.823364c43.82431 0 79.35092 -35.738144 79.35092 -79.823364l0 0c0 -44.085224 -35.52661 -79.823364 -79.35092 -79.823364l0 0c-43.824306 0 -79.35092 35.738136 -79.35092 79.823364z" fill-rule="evenodd"/><path fill="#000000" fill-opacity="0.0" d="m25.519686 -31.60105l91.02362 0l0 261.7953l-91.02362 0z" fill-rule="evenodd"/><path fill="#ffffff" d="m55.519684 165.39896q-2.796875 0 -6.5 -4.703125q-3.703125 -4.703125 -3.703125 -9.796875q0 -5.09375 13.0 -55.500008q13.0 -50.40625 13.0 -63.203125q0 -3.593748 0.796875 -4.984373q0.8125 -1.40625 3.703125 -1.40625q2.90625 0 6.90625 6.203123q4.0 6.1875 4.0 14.1875q0 8.0 -10.40625 47.40625q18.203125 -24.796875 38.40625 -45.703125q20.203125 -20.906248 25.59375 -20.906248q4.0 0 7.5 2.609375q3.5 2.593748 3.5 5.093748q0 2.5 -9.5 11.203125q-9.5 8.703125 -25.5 24.3125q-16.0 15.59375 -27.390625 31.1875q0 8.203125 4.390625 17.796875q7.0 16.000008 28.796875 26.609383q9.40625 4.59375 14.703125 7.796875q5.296875 3.203125 5.296875 6.59375q0 5.203125 -7.796875 5.203125q-7.796875 0 -16.40625 -3.296875q-8.59375 -3.296875 -17.203125 -9.296875q-8.59375 -6.0 -15.6875 -15.90625q-7.09375 -9.906258 -9.703125 -21.703133q-6.203125 11.0 -11.59375 29.000008q-6.609375 21.203125 -8.0 21.203125l-0.203125 0z" fill-rule="nonzero"/></g></svg>